<?xml version="1.0" encoding="utf-8"?>
<!-- Generator: Adobe Illustrator 27.3.1, SVG Export Plug-In . SVG Version: 6.00 Build 0)  -->
<svg version="1.1" id="Calque_1" xmlns="http://www.w3.org/2000/svg" xmlns:xlink="http://www.w3.org/1999/xlink" x="0px" y="0px"
	 viewBox="0 0 595.28 841.89" style="enable-background:new 0 0 595.28 841.89;" xml:space="preserve">
<style type="text/css">
	.st0{fill:url(#SVGID_1_);}
	.st1{fill:#312783;}
	.st2{fill:none;}
	.st3{fill:#312783;stroke:#312783;stroke-width:2;stroke-miterlimit:10;}
	.st4{font-family:'ChakraPetch-Bold';}
	.st5{font-size:107px;}
	.st6{fill:#FFFFFF;stroke:#312783;stroke-width:2;stroke-miterlimit:10;}
	.st7{font-size:106px;}
</style>
<linearGradient id="SVGID_1_" gradientUnits="userSpaceOnUse" x1="109.0302" y1="365.4051" x2="486.2454" y2="365.4051" gradientTransform="matrix(0.8054 0.5927 -0.5927 0.8054 274.4779 -105.3101)">
	<stop  offset="0" style="stop-color:#FFEF26"/>
	<stop  offset="0.0287" style="stop-color:#FFE000"/>
	<stop  offset="0.0628" style="stop-color:#FFD300"/>
	<stop  offset="0.098" style="stop-color:#FECB00"/>
	<stop  offset="0.1354" style="stop-color:#FDC800"/>
	<stop  offset="0.4513" style="stop-color:#F18F34"/>
	<stop  offset="0.7373" style="stop-color:#E95F32"/>
	<stop  offset="1" style="stop-color:#E3312D"/>
</linearGradient>
<circle class="st0" cx="297.64" cy="365.41" r="188.61"/>
<g>
	<g>
		<path class="st1" d="M109.52,353.17c-6.04-3.99-12.58-8.17-20.05-8.4c-6.05-0.19-12.65,2.41-15.59,7.99
			c-3.32,6.3-1.14,13.53,2.47,19.18c3.97,6.23,9.7,11.36,15.31,16.09c12.02,10.14,25.49,18.42,38.77,26.77
			c14.1,8.86,28.32,17.53,42.64,26.03c28.64,17.01,57.66,33.36,86.86,49.4c29.18,16.02,58.51,31.76,87.88,47.43
			c7.17,3.83,14.39,7.57,21.89,10.73c6.71,2.82,14.05,5.38,21.45,4.59c6.02-0.64,11.62-3.49,14.31-9.12
			c2.12-4.44,2.68-10.03,0.17-14.45c-1.28-2.25-3.25-3.74-5.61-4.7c-1.25-0.51-2.75,0.56-3.08,1.75c-0.39,1.43,0.49,2.56,1.75,3.08
			c3.57,1.46,4.06,6.08,3.27,9.37c-1.16,4.85-4.59,7.79-9.41,8.84c-6.65,1.44-13.74-0.98-19.84-3.47c-7.03-2.87-13.8-6.36-20.5-9.92
			c-27.64-14.67-55.19-29.52-82.64-44.53c-27.4-14.98-54.66-30.23-81.61-46.01c-13.47-7.89-26.87-15.9-40.17-24.09
			c-12.9-7.94-25.88-15.85-38.35-24.46c-6.01-4.15-11.86-8.54-17.31-13.42c-4.94-4.42-10-9.15-13.03-15.14
			c-2.52-4.99-3.01-11.58,2.32-14.93c5.1-3.21,11.41-2.14,16.56,0.34c3.15,1.52,6.08,3.45,8.99,5.37
			C109.69,359.27,112.2,354.94,109.52,353.17L109.52,353.17z"/>
	</g>
</g>
<g>
	<g>
		<path class="st1" d="M182.12,515.71c-6.51,2.71-13.47,5.59-17.97,11.3c-4.12,5.23-5.97,12.72-2.47,18.77
			c3,5.18,8.78,7.36,14.45,7.99c6.58,0.73,13.26-0.69,19.62-2.25c15.73-3.85,30.6-10.55,45.37-17.07
			c15.37-6.78,30.64-13.79,45.82-20.97c30.17-14.27,60.02-29.23,89.68-44.52c29.67-15.3,59.17-30.94,88.66-46.58
			c7.29-3.86,14.59-7.72,21.57-12.11c5.97-3.75,11.96-7.86,16.26-13.54c3.7-4.88,6.13-11.47,4.03-17.51c-1.8-5.19-6.34-9.98-11.9-11
			c-2.82-0.51-5.63-0.01-8.03,1.58c-2.67,1.77-0.17,6.1,2.52,4.32c4.09-2.71,8.89,0.24,11.27,3.88c3.2,4.88,1.82,10.39-1.3,14.96
			c-3.56,5.22-9.04,8.95-14.28,12.3c-6.58,4.21-13.47,7.92-20.36,11.58c-27.52,14.62-55.05,29.21-82.72,43.55
			c-27.77,14.39-55.68,28.51-83.87,42.08c-14.04,6.76-28.15,13.38-42.33,19.82c-14.05,6.38-28.11,12.92-42.55,18.36
			c-7.07,2.67-14.28,5-21.66,6.65c-5.63,1.26-11.62,2.39-17.37,1.24c-4.77-0.96-9.44-3.81-9.74-9.16
			c-0.36-6.49,4.51-11.53,9.72-14.59c2.84-1.67,5.87-2.96,8.9-4.23c1.26-0.52,2.12-1.65,1.75-3.08
			C184.88,516.27,183.37,515.19,182.12,515.71L182.12,515.71z"/>
	</g>
</g>
<g>
	<g>
		<path class="st1" d="M464.91,453.11c0.93,4.67,2,9.59,4.92,13.47c2.6,3.47,6.59,5.75,11.03,5.48c4.6-0.29,8.31-3.27,9-7.94
			c0.41-2.79-0.16-5.57-0.69-8.31c-0.55-2.91-1.12-5.81-1.69-8.72c-4.53-23.15-9.54-46.21-15-69.15
			c-5.46-22.94-11.38-45.76-17.75-68.46c-6.37-22.68-13.2-45.24-20.48-67.65c-3.65-11.24-7.42-22.44-11.29-33.61
			c-1.57-4.52-3.2-9.28-6.87-12.59c-1.63-1.48-3.63-2.61-5.88-2.69c-1.11-0.04-2.18,0.22-3.19,0.66c-1.46,0.64-2.15,2.13-2.99,3.42
			c-1.67,2.54-3.34,5.07-5.01,7.61c-1.77,2.7,2.55,5.2,4.32,2.52c2.16-3.28,4.32-6.57,6.48-9.85c-0.3,0.3-0.6,0.6-0.9,0.9
			c2.83-1.39,5.58,2.96,6.76,5.14c1.07,1.97,1.73,4.1,2.46,6.2c0.88,2.54,1.76,5.09,2.63,7.64c3.46,10.11,6.83,20.26,10.1,30.43
			c6.58,20.44,12.78,41.01,18.61,61.67c5.83,20.68,11.28,41.47,16.35,62.35c5.07,20.89,9.76,41.88,14.06,62.94
			c1.08,5.29,2.14,10.58,3.17,15.88c0.51,2.64,1.03,5.28,1.52,7.92c0.38,2.02,0.86,4.43-0.05,6.38c-1.22,2.62-4.7,2.74-7.19,1.74
			c-3.37-1.35-5.09-5.08-6.09-8.34c-0.65-2.1-1.09-4.25-1.52-6.39C469.1,448.63,464.28,449.97,464.91,453.11L464.91,453.11z"/>
	</g>
</g>
<g>
	<g>
		<path class="st1" d="M397.81,527.23c1.63,0,2.25-2.06,0.27-2.06C396.45,525.17,395.84,527.23,397.81,527.23L397.81,527.23z"/>
	</g>
</g>
<g>
	<g>
		<path class="st1" d="M396.64,527.31c0.56,0,1.63-0.2,1.92-0.76c0.29-0.57-0.25-0.74-0.75-0.74c-0.56,0-1.63,0.2-1.92,0.76
			C395.59,527.14,396.14,527.31,396.64,527.31L396.64,527.31z"/>
	</g>
</g>
<g>
	<g>
		<path class="st1" d="M396.57,528.05c1.7,0,2.19-2.25,0.22-2.25C395.09,525.8,394.61,528.05,396.57,528.05L396.57,528.05z"/>
	</g>
</g>
<g>
	<g>
		<path class="st1" d="M397.41,528.73c0.61,0,1.61-0.18,1.9-0.82c0.27-0.59-0.23-0.98-0.82-0.98c-0.61,0-1.61,0.18-1.9,0.82
			C396.32,528.34,396.82,528.73,397.41,528.73L397.41,528.73z"/>
	</g>
</g>
<g>
	<g>
		<path class="st1" d="M395.57,527.35c0.65,0,1.54-0.11,2.05-0.55c0.36-0.31,0.47-0.67-0.18-0.67c-0.65,0-1.54,0.11-2.05,0.55
			C395.02,526.99,394.92,527.35,395.57,527.35L395.57,527.35z"/>
	</g>
</g>
<g>
	<g>
		<path class="st1" d="M395.96,527.65c0.61,0,1.61-0.18,1.9-0.83c0.27-0.59-0.23-0.98-0.82-0.98c-0.61,0-1.61,0.18-1.9,0.83
			C394.87,527.26,395.37,527.65,395.96,527.65L395.96,527.65z"/>
	</g>
</g>
<g>
	<g>
		<path class="st1" d="M398.36,529.06c1.65,0,2.23-2.1,0.26-2.1C396.97,526.96,396.39,529.06,398.36,529.06L398.36,529.06z"/>
	</g>
</g>
<g>
	<g>
		<path class="st1" d="M396.86,528.37c0.61,0,1.61-0.18,1.9-0.82c0.27-0.59-0.23-0.98-0.82-0.98c-0.61,0-1.61,0.18-1.9,0.82
			C395.78,527.98,396.28,528.37,396.86,528.37L396.86,528.37z"/>
	</g>
</g>
<rect x="136.43" y="347.26" class="st2" width="360.98" height="101.68"/>
<text transform="matrix(1 0 0 1 136.4287 423.6599)" class="st3 st4 st5">SiRiuS</text>
<g>
	<g>
		<path class="st1" d="M333.03,180.7c5.83-3.7,11.94-7.36,18.86-8.51c5.01-0.84,10.72,0.15,14.76,3.38
			c4.19,3.35,5.57,8.65,3.96,13.7c-1.8,5.62-6.32,10.2-10.72,13.92c-5.1,4.3-10.95,7.77-16.56,11.35
			c-5.96,3.8-11.99,7.49-18.07,11.08c-12.03,7.1-24.3,13.79-36.78,20.07c-25.07,12.64-50.95,23.64-77.38,33.1
			c-26.51,9.49-53.56,17.43-80.96,23.93c-3.4,0.81-6.81,1.59-10.22,2.36c-2.57,0.57-4.96,1.14-7.56,1.22
			c-2.32,0.08-4.57-0.09-6.8-0.72c-0.95-0.27-1.57-0.49-2.4-0.97c-0.71-0.4-1.42-0.98-1.69-1.33c-0.48-0.63-0.75-1.33-0.81-1.89
			c-0.1-1.06-0.04-1.62,0.37-2.59c-0.16,0.37,0.07-0.09,0.12-0.18c0.1-0.17,0.2-0.35,0.32-0.51c-0.19,0.27,0.4-0.43,0.55-0.58
			c0.42-0.42,1.27-0.93,2.14-1.36c3.55-1.72,8.44-2.3,12.43-3.75c2.23-0.81,4.24-1.83,6.11-3.3c1.06-0.83,0.87-2.66,0-3.54
			c-1.05-1.05-2.47-0.84-3.54,0c-3.34,2.62-8.5,3.3-12.72,4.51c-4.23,1.21-8.81,3.1-10.32,7.62c-1.64,4.91,0.99,9.67,5.54,11.73
			c4.73,2.14,10.23,2.24,15.27,1.38c7.11-1.2,14.18-3.16,21.18-4.88c7.11-1.75,14.2-3.6,21.26-5.55
			c14.28-3.94,28.44-8.3,42.46-13.07c28.06-9.56,55.56-20.81,82.19-33.84c13.28-6.5,26.34-13.44,39.13-20.84
			c6.33-3.66,12.59-7.43,18.79-11.31c6.14-3.85,12.44-7.64,18.23-12.02c9.55-7.22,21.13-19.89,13.97-32.59
			c-2.91-5.16-8.55-8.39-14.28-9.38c-7.02-1.22-13.9,0.69-20.2,3.77c-3.16,1.55-6.17,3.39-9.15,5.27
			C327.79,178.1,330.3,182.43,333.03,180.7L333.03,180.7z"/>
	</g>
</g>
<rect x="141.43" y="342.05" class="st2" width="338.46" height="77.31"/>
<text transform="matrix(1 0 0 1 141.4287 417.7348)" class="st6 st4 st7">SiRiuS</text>
</svg>
